<svg width="256" height="256" viewBox="0 0 256 256" fill="none" xmlns="http://www.w3.org/2000/svg">
<rect width="256" height="256" fill="#8854D0"/>
<path d="M140.504 126.688V129.248H142.936V131.168H140.248V131.808H127.96V133.088H128.472V135.648H124.888V136.928H121.816V139.488H130.392C130.392 139.829 130.392 140.171 130.392 140.512C130.392 140.768 130.349 141.067 130.264 141.408H120.664C120.664 141.664 120.621 141.877 120.536 142.048H120.28L119.896 144.608H137.176V145.248H129.752C129.752 145.333 129.709 145.419 129.624 145.504C129.624 145.589 129.624 145.717 129.624 145.888H128.856C128.771 146.229 128.685 146.571 128.6 146.912C128.515 147.168 128.429 147.467 128.344 147.808H126.424L125.656 150.368H129.368L128.984 151.648H126.424L125.912 152.928H126.552C126.381 153.355 126.168 153.781 125.912 154.208C125.656 154.635 125.443 155.061 125.272 155.488H122.84C122.584 155.915 122.328 156.341 122.072 156.768C121.816 157.195 121.517 157.621 121.176 158.048H123.352C123.011 158.475 122.669 158.901 122.328 159.328C122.072 159.755 121.773 160.181 121.432 160.608H122.072C121.987 160.693 121.901 160.779 121.816 160.864C121.731 160.949 121.645 161.077 121.56 161.248H121.048C120.963 161.333 120.835 161.419 120.664 161.504C120.579 161.589 120.493 161.717 120.408 161.888L120.792 162.528H120.28L120.792 163.168H123.992L125.784 165.728H126.424L128.216 168.288H122.2L123.992 170.848H126.168L127.064 172.128H128.216L130.008 174.688H130.392L130.904 175.328H129.24L130.008 176.352C130.008 176.437 130.051 176.523 130.136 176.608H130.648C130.648 176.693 130.648 176.779 130.648 176.864C130.733 176.949 130.776 177.077 130.776 177.248H130.52V177.504C130.691 178.443 130.392 179.211 129.624 179.808H124.12C123.779 180.149 123.267 180.32 122.584 180.32H97.496C96.984 180.32 96.5147 180.235 96.088 180.064C95.6613 179.979 95.2773 179.893 94.936 179.808H100.312C99.6293 179.467 99.032 179.04 98.52 178.528C98.0933 178.101 97.752 177.717 97.496 177.376L97.368 177.248H97.752L97.24 176.608H96.728L95.704 175.328H97.368L96.856 174.688H96.344L94.936 172.896C92.632 173.152 90.1573 173.28 87.512 173.28C82.9893 173.28 78.7227 172.896 74.712 172.128H73.56C72.7067 171.957 71.8107 171.787 70.872 171.616C70.0187 171.36 69.208 171.104 68.44 170.848H66.264C65.1547 170.507 64.0453 170.123 62.936 169.696C61.8267 169.269 60.76 168.8 59.736 168.288H65.624C64.856 167.861 64.088 167.435 63.32 167.008C62.6373 166.581 61.9547 166.155 61.272 165.728H60.632C60.0347 165.301 59.48 164.875 58.968 164.448C58.456 164.021 57.944 163.595 57.432 163.168H54.232L53.464 162.528H54.104C53.848 162.357 53.592 162.144 53.336 161.888C53.1653 161.632 52.9947 161.419 52.824 161.248H53.336L52.696 160.608H52.056C51.7147 160.181 51.3733 159.755 51.032 159.328C50.6907 158.901 50.3493 158.475 50.008 158.048H47.832C47.576 157.621 47.32 157.195 47.064 156.768C46.808 156.341 46.552 155.915 46.296 155.488H48.728C48.472 155.061 48.216 154.635 47.96 154.208C47.7893 153.781 47.6187 153.355 47.448 152.928H46.808C46.7227 152.757 46.6373 152.544 46.552 152.288C46.4667 152.032 46.3813 151.819 46.296 151.648H48.728L48.216 150.368H44.504L43.736 147.808H44.376L43.992 145.888H48.216C48.1307 145.717 48.088 145.504 48.088 145.248H33.752C33.6667 145.077 33.624 144.864 33.624 144.608H52.824L52.44 142.048H42.712C42.712 141.877 42.6693 141.749 42.584 141.664C42.584 141.579 42.584 141.493 42.584 141.408H27.864C27.7787 141.067 27.736 140.768 27.736 140.512C27.736 140.171 27.6933 139.829 27.608 139.488H48.216V136.928H38.744V135.648H40.792V133.088H43.48V131.808H50.52C50.52 131.552 50.4773 131.339 50.392 131.168H53.464V129.248H65.496V126.688H60.632V124.128H34.52V121.568H56.92V119.648H44.504V119.008H43.352V116.448H42.072V116.192C42.072 115.765 42.072 115.381 42.072 115.04C42.072 114.613 42.1147 114.229 42.2 113.888H43.736C43.736 113.632 43.7787 113.419 43.864 113.248H39.128C39.128 112.907 39.128 112.608 39.128 112.352C39.2133 112.011 39.2987 111.669 39.384 111.328H47.832L48.216 109.408H38.104C38.1893 108.981 38.3173 108.555 38.488 108.128C38.5733 107.701 38.6587 107.275 38.744 106.848H38.36C38.4453 106.507 38.5307 106.208 38.616 105.952C38.7013 105.611 38.7867 105.269 38.872 104.928H48.728L49.496 103.008H54.488L55.64 100.448H47.576L47.832 99.808H48.088L49.24 97.888H48.6C49.112 97.0347 49.7093 96.1813 50.392 95.328H46.296C46.3813 95.1573 46.552 94.944 46.808 94.688H43.48L44.632 93.408H46.808L48.088 92.128H53.336L55.64 90.208H47.96C48.3867 89.8667 48.8133 89.568 49.24 89.312C49.6667 88.9707 50.136 88.6293 50.648 88.288H56.408L57.432 87.648H59.608L63.192 85.728H66.776C67.288 85.472 67.8 85.2587 68.312 85.088C68.824 84.832 69.336 84.6187 69.848 84.448H71.896C75.1387 83.2533 78.424 82.4 81.752 81.888H83.032C86.2747 81.376 89.688 81.12 93.272 81.12C96.9413 81.12 100.355 81.376 103.512 81.888H102.232C105.731 82.4 109.016 83.2533 112.088 84.448H110.04C110.552 84.6187 111.064 84.832 111.576 85.088C112.088 85.2587 112.6 85.472 113.112 85.728H109.528L113.112 87.648H110.808C110.979 87.7333 111.149 87.8187 111.32 87.904C111.576 87.9893 111.747 88.1173 111.832 88.288H106.072L108.76 90.208H116.312L118.616 92.128H113.24C113.496 92.2987 113.709 92.512 113.88 92.768C114.136 93.024 114.349 93.2373 114.52 93.408H112.344L113.496 94.688H116.696L117.336 95.328H121.432C122.115 96.1813 122.712 97.0347 123.224 97.888H123.864L125.016 99.808H124.76L125.144 100.448H133.336L134.488 103.008H129.496C129.667 103.349 129.795 103.691 129.88 104.032C129.965 104.288 130.051 104.587 130.136 104.928H120.408C120.493 105.269 120.579 105.611 120.664 105.952C120.749 106.208 120.835 106.507 120.92 106.848H115.032L115.672 109.408H128.216C128.301 109.749 128.344 110.091 128.344 110.432C128.344 110.688 128.387 110.987 128.472 111.328H126.424C126.509 111.669 126.552 112.011 126.552 112.352C126.552 112.608 126.595 112.907 126.68 113.248H134.872C134.957 113.419 135 113.632 135 113.888H125.784C125.869 114.229 125.912 114.613 125.912 115.04C125.912 115.381 125.955 115.765 126.04 116.192V116.448H124.12C124.12 116.875 124.12 117.301 124.12 117.728C124.12 118.155 124.163 118.581 124.248 119.008H131.416V119.648H137.432V121.568H127.96V124.128H147.544C147.544 124.555 147.544 124.981 147.544 125.408C147.629 125.835 147.672 126.261 147.672 126.688H140.504ZM75.864 106.848C74.4987 107.36 73.432 108.213 72.664 109.408H81.112C80.1733 108.128 79.1067 107.275 77.912 106.848H83.8C82.6907 106.336 81.3253 106.08 79.704 106.08C78.168 106.08 76.76 106.336 75.48 106.848H75.864ZM109.528 131.168C109.613 130.827 109.656 130.528 109.656 130.272C109.656 129.931 109.656 129.589 109.656 129.248H107.224V126.688H114.392C114.392 126.261 114.349 125.835 114.264 125.408C114.264 124.981 114.264 124.555 114.264 124.128H94.68V121.568H104.152V119.648H98.136V119.008H90.968C90.8827 118.581 90.84 118.155 90.84 117.728C90.84 117.301 90.84 116.875 90.84 116.448H92.76C92.6747 116.021 92.632 115.595 92.632 115.168C92.632 114.656 92.5467 114.229 92.376 113.888H101.592C101.592 113.717 101.549 113.589 101.464 113.504C101.464 113.419 101.464 113.333 101.464 113.248H93.272C93.1867 112.907 93.1013 112.608 93.016 112.352C92.9307 112.011 92.8027 111.669 92.632 111.328H94.68C94.424 110.645 94.0827 110.005 93.656 109.408H82.648C82.2213 110.005 81.88 110.645 81.624 111.328H73.176C73.0907 111.669 72.9627 112.011 72.792 112.352C72.7067 112.608 72.6213 112.907 72.536 113.248H77.272C77.272 113.333 77.2293 113.419 77.144 113.504C77.144 113.589 77.144 113.717 77.144 113.888H75.608C75.5227 114.229 75.4373 114.656 75.352 115.168C75.352 115.595 75.352 116.021 75.352 116.448H76.632V119.008H77.784V119.648H90.2V121.568H67.8V124.128H93.912V126.688H98.776V129.248H86.744V131.168H83.8V131.808H76.76V133.088H74.072V135.648H72.024V136.928H81.496V137.952C81.496 138.208 81.496 138.464 81.496 138.72C81.496 138.976 81.5387 139.232 81.624 139.488H61.016C61.016 139.829 61.016 140.171 61.016 140.512C61.1013 140.768 61.1867 141.067 61.272 141.408H76.12C76.2053 141.579 76.248 141.792 76.248 142.048H86.104C86.1893 142.133 86.232 142.261 86.232 142.432C86.232 142.603 86.2747 142.773 86.36 142.944C86.4453 142.773 86.488 142.603 86.488 142.432C86.488 142.261 86.5307 142.133 86.616 142.048H87C87 141.877 87 141.749 87 141.664C87.0853 141.579 87.128 141.493 87.128 141.408H96.728L97.112 139.488H88.408C88.4933 139.232 88.536 138.976 88.536 138.72C88.536 138.464 88.536 138.208 88.536 137.952V136.928H91.608V135.648H95.192V133.088H94.68V131.808H106.968V131.168H109.528ZM102.36 145.248C102.616 144.992 102.787 144.779 102.872 144.608H67.928C68.184 144.864 68.3547 145.077 68.44 145.248H82.776C82.8613 145.333 82.9467 145.419 83.032 145.504C83.1173 145.589 83.2027 145.717 83.288 145.888H79.064C80.0027 146.827 81.0693 147.467 82.264 147.808H81.496C82.52 148.149 83.7147 148.32 85.08 148.32C86.4453 148.32 87.64 148.149 88.664 147.808H90.584C91.7787 147.381 92.8027 146.741 93.656 145.888H94.552C94.6373 145.717 94.7227 145.589 94.808 145.504C94.8933 145.419 94.9787 145.333 95.064 145.248H102.36ZM138.48 85.728C138.565 85.472 138.608 85.2587 138.608 85.088C138.693 84.832 138.779 84.6187 138.864 84.448H124.784C124.955 84.192 125.125 83.9787 125.296 83.808C125.467 83.552 125.637 83.3387 125.808 83.168H140.656C141.339 82.656 142.064 82.4 142.832 82.4H168.432C169.371 82.4 170.096 82.656 170.608 83.168H155.76C155.931 83.3387 156.101 83.552 156.272 83.808C156.528 83.9787 156.699 84.192 156.784 84.448H170.736C170.907 84.96 170.992 85.3867 170.992 85.728H178.16C178.245 85.728 178.288 85.7707 178.288 85.856V87.008H161.008V89.568H168.176V91.488H167.408V94.048H162.8V96.608H173.168V97.248H173.936V99.808H174.448V102.368H173.552V104.928H172.912V108.128H175.088V110.688H172.656V113.248H173.168V113.888H182.256V116.448H186.992V117.728H167.28V119.008H173.808V121.568H168.432V124.128H173.04V125.408H173.936V127.328H191.088V128.608H202.992V131.168H170.48V128.608H158.576V127.328H141.424V125.408H140.528V124.128H135.92V121.568H141.296V119.008H134.768V117.728H154.48V116.448H149.744V113.888H140.656V113.248H140.144V110.688H142.576V108.128H140.4V104.928H141.04V102.368H141.936V99.808H141.424V97.248H140.656V96.608H130.288V94.048H134.896V91.488H135.664V89.568H128.496V87.008H145.776V85.728H138.48ZM223.6 154.848H188.656V155.488H191.216V157.408H209.392V158.048H203.76V160.608H212.72V162.528H214V163.168H213.104V163.808H212.72V166.368H212.976V168.288H212.464V168.928H211.824C211.739 169.099 211.696 169.312 211.696 169.568H213.104C212.848 170.421 212.379 171.061 211.696 171.488H210.288C209.861 171.829 209.264 172 208.496 172H143.984C143.216 172 142.619 171.829 142.192 171.488H143.472C142.704 171.061 142.192 170.421 141.936 169.568H140.528C140.528 169.397 140.485 169.269 140.4 169.184C140.4 169.099 140.4 169.013 140.4 168.928H141.04V168.288H141.552V166.368H141.296V163.808H141.68V163.168H142.576V162.528H141.296V160.608H132.336V158.048H137.968V157.408H119.792V155.488H117.232V154.848H152.176V152.928H137.968V151.008H151.792V150.368H121.584V148.448H125.936V147.808H142.576V147.168H136.688V145.248H146.672V142.688H136.56V141.408H144.88V140.768H141.04V138.848H144.752V137.568H140.016V136.288H151.152V134.368H154.352V133.088H136.816V131.168H169.328V133.088H186.864V134.368H183.664V136.288H172.528V137.568H177.264V138.848H173.552V140.768H177.392V141.408H169.072V142.688H179.184V145.248H169.2V145.76H204.656C205.851 145.76 206.789 146.229 207.472 147.168H213.36L213.744 147.808H197.104L197.36 148.448H192.88C192.965 148.619 193.008 148.875 193.008 149.216V150.368H223.216V151.008H209.392V152.928H223.6V154.848Z" fill="white"/>
</svg>
