<svg width="528" height="100" viewBox="0 0 528 100" fill="none" xmlns="http://www.w3.org/2000/svg">
<path d="M113.504 45.688V48.248H115.936V50.168H113.248V50.808H100.96V52.088H101.472V54.648H97.888V55.928H94.816V58.488H103.392C103.392 58.8293 103.392 59.1707 103.392 59.512C103.392 59.768 103.349 60.0667 103.264 60.408H93.664C93.664 60.664 93.6213 60.8773 93.536 61.048H93.28L92.896 63.608H110.176V64.248H102.752C102.752 64.3333 102.709 64.4187 102.624 64.504C102.624 64.5893 102.624 64.7173 102.624 64.888H101.856C101.771 65.2293 101.685 65.5707 101.6 65.912C101.515 66.168 101.429 66.4667 101.344 66.808H99.424L98.656 69.368H102.368L101.984 70.648H99.424L98.912 71.928H99.552C99.3813 72.3547 99.168 72.7813 98.912 73.208C98.656 73.6347 98.4427 74.0613 98.272 74.488H95.84C95.584 74.9147 95.328 75.3413 95.072 75.768C94.816 76.1947 94.5173 76.6213 94.176 77.048H96.352C96.0107 77.4747 95.6693 77.9013 95.328 78.328C95.072 78.7547 94.7733 79.1813 94.432 79.608H95.072C94.9867 79.6933 94.9013 79.7787 94.816 79.864C94.7307 79.9493 94.6453 80.0773 94.56 80.248H94.048C93.9627 80.3333 93.8347 80.4187 93.664 80.504C93.5787 80.5893 93.4933 80.7173 93.408 80.888L93.792 81.528H93.28L93.792 82.168H96.992L98.784 84.728H99.424L101.216 87.288H95.2L96.992 89.848H99.168L100.064 91.128H101.216L103.008 93.688H103.392L103.904 94.328H102.24L103.008 95.352C103.008 95.4373 103.051 95.5227 103.136 95.608H103.648C103.648 95.6933 103.648 95.7787 103.648 95.864C103.733 95.9493 103.776 96.0773 103.776 96.248H103.52V96.504C103.691 97.4427 103.392 98.2107 102.624 98.808H97.12C96.7787 99.1493 96.2667 99.32 95.584 99.32H70.496C69.984 99.32 69.5147 99.2347 69.088 99.064C68.6613 98.9787 68.2773 98.8933 67.936 98.808H73.312C72.6293 98.4667 72.032 98.04 71.52 97.528C71.0933 97.1013 70.752 96.7173 70.496 96.376L70.368 96.248H70.752L70.24 95.608H69.728L68.704 94.328H70.368L69.856 93.688H69.344L67.936 91.896C65.632 92.152 63.1573 92.28 60.512 92.28C55.9893 92.28 51.7227 91.896 47.712 91.128H46.56C45.7067 90.9573 44.8107 90.7867 43.872 90.616C43.0187 90.36 42.208 90.104 41.44 89.848H39.264C38.1547 89.5067 37.0453 89.1227 35.936 88.696C34.8267 88.2693 33.76 87.8 32.736 87.288H38.624C37.856 86.8613 37.088 86.4347 36.32 86.008C35.6373 85.5813 34.9547 85.1547 34.272 84.728H33.632C33.0347 84.3013 32.48 83.8747 31.968 83.448C31.456 83.0213 30.944 82.5947 30.432 82.168H27.232L26.464 81.528H27.104C26.848 81.3573 26.592 81.144 26.336 80.888C26.1653 80.632 25.9947 80.4187 25.824 80.248H26.336L25.696 79.608H25.056C24.7147 79.1813 24.3733 78.7547 24.032 78.328C23.6907 77.9013 23.3493 77.4747 23.008 77.048H20.832C20.576 76.6213 20.32 76.1947 20.064 75.768C19.808 75.3413 19.552 74.9147 19.296 74.488H21.728C21.472 74.0613 21.216 73.6347 20.96 73.208C20.7893 72.7813 20.6187 72.3547 20.448 71.928H19.808C19.7227 71.7573 19.6373 71.544 19.552 71.288C19.4667 71.032 19.3813 70.8187 19.296 70.648H21.728L21.216 69.368H17.504L16.736 66.808H17.376L16.992 64.888H21.216C21.1307 64.7173 21.088 64.504 21.088 64.248H6.752C6.66667 64.0773 6.624 63.864 6.624 63.608H25.824L25.44 61.048H15.712C15.712 60.8773 15.6693 60.7493 15.584 60.664C15.584 60.5787 15.584 60.4933 15.584 60.408H0.863999C0.778666 60.0667 0.735999 59.768 0.735999 59.512C0.735999 59.1707 0.693333 58.8293 0.608 58.488H21.216V55.928H11.744V54.648H13.792V52.088H16.48V50.808H23.52C23.52 50.552 23.4773 50.3387 23.392 50.168H26.464V48.248H38.496V45.688H33.632V43.128H7.52V40.568H29.92V38.648H17.504V38.008H16.352V35.448H15.072V35.192C15.072 34.7653 15.072 34.3813 15.072 34.04C15.072 33.6133 15.1147 33.2293 15.2 32.888H16.736C16.736 32.632 16.7787 32.4187 16.864 32.248H12.128C12.128 31.9067 12.128 31.608 12.128 31.352C12.2133 31.0107 12.2987 30.6693 12.384 30.328H20.832L21.216 28.408H11.104C11.1893 27.9813 11.3173 27.5547 11.488 27.128C11.5733 26.7013 11.6587 26.2747 11.744 25.848H11.36C11.4453 25.5067 11.5307 25.208 11.616 24.952C11.7013 24.6107 11.7867 24.2693 11.872 23.928H21.728L22.496 22.008H27.488L28.64 19.448H20.576L20.832 18.808H21.088L22.24 16.888H21.6C22.112 16.0347 22.7093 15.1813 23.392 14.328H19.296C19.3813 14.1573 19.552 13.944 19.808 13.688H16.48L17.632 12.408H19.808L21.088 11.128H26.336L28.64 9.20799H20.96C21.3867 8.86666 21.8133 8.568 22.24 8.312C22.6667 7.97066 23.136 7.62933 23.648 7.28799H29.408L30.432 6.64799H32.608L36.192 4.728H39.776C40.288 4.472 40.8 4.25866 41.312 4.088C41.824 3.832 42.336 3.61866 42.848 3.448H44.896C48.1387 2.25333 51.424 1.4 54.752 0.887993H56.032C59.2747 0.375994 62.688 0.119995 66.272 0.119995C69.9413 0.119995 73.3547 0.375994 76.512 0.887993H75.232C78.7307 1.4 82.016 2.25333 85.088 3.448H83.04C83.552 3.61866 84.064 3.832 84.576 4.088C85.088 4.25866 85.6 4.472 86.112 4.728H82.528L86.112 6.64799H83.808C83.9787 6.73333 84.1493 6.81866 84.32 6.904C84.576 6.98933 84.7467 7.11733 84.832 7.28799H79.072L81.76 9.20799H89.312L91.616 11.128H86.24C86.496 11.2987 86.7093 11.512 86.88 11.768C87.136 12.024 87.3493 12.2373 87.52 12.408H85.344L86.496 13.688H89.696L90.336 14.328H94.432C95.1147 15.1813 95.712 16.0347 96.224 16.888H96.864L98.016 18.808H97.76L98.144 19.448H106.336L107.488 22.008H102.496C102.667 22.3493 102.795 22.6907 102.88 23.032C102.965 23.288 103.051 23.5867 103.136 23.928H93.408C93.4933 24.2693 93.5787 24.6107 93.664 24.952C93.7493 25.208 93.8347 25.5067 93.92 25.848H88.032L88.672 28.408H101.216C101.301 28.7493 101.344 29.0907 101.344 29.432C101.344 29.688 101.387 29.9867 101.472 30.328H99.424C99.5093 30.6693 99.552 31.0107 99.552 31.352C99.552 31.608 99.5947 31.9067 99.68 32.248H107.872C107.957 32.4187 108 32.632 108 32.888H98.784C98.8693 33.2293 98.912 33.6133 98.912 34.04C98.912 34.3813 98.9547 34.7653 99.04 35.192V35.448H97.12C97.12 35.8747 97.12 36.3013 97.12 36.728C97.12 37.1547 97.1627 37.5813 97.248 38.008H104.416V38.648H110.432V40.568H100.96V43.128H120.544C120.544 43.5547 120.544 43.9813 120.544 44.408C120.629 44.8347 120.672 45.2613 120.672 45.688H113.504ZM48.864 25.848C47.4987 26.36 46.432 27.2133 45.664 28.408H54.112C53.1733 27.128 52.1067 26.2747 50.912 25.848H56.8C55.6907 25.336 54.3253 25.08 52.704 25.08C51.168 25.08 49.76 25.336 48.48 25.848H48.864ZM82.528 50.168C82.6133 49.8267 82.656 49.528 82.656 49.272C82.656 48.9307 82.656 48.5893 82.656 48.248H80.224V45.688H87.392C87.392 45.2613 87.3493 44.8347 87.264 44.408C87.264 43.9813 87.264 43.5547 87.264 43.128H67.68V40.568H77.152V38.648H71.136V38.008H63.968C63.8827 37.5813 63.84 37.1547 63.84 36.728C63.84 36.3013 63.84 35.8747 63.84 35.448H65.76C65.6747 35.0213 65.632 34.5947 65.632 34.168C65.632 33.656 65.5467 33.2293 65.376 32.888H74.592C74.592 32.7173 74.5493 32.5893 74.464 32.504C74.464 32.4187 74.464 32.3333 74.464 32.248H66.272C66.1867 31.9067 66.1013 31.608 66.016 31.352C65.9307 31.0107 65.8027 30.6693 65.632 30.328H67.68C67.424 29.6453 67.0827 29.0053 66.656 28.408H55.648C55.2213 29.0053 54.88 29.6453 54.624 30.328H46.176C46.0907 30.6693 45.9627 31.0107 45.792 31.352C45.7067 31.608 45.6213 31.9067 45.536 32.248H50.272C50.272 32.3333 50.2293 32.4187 50.144 32.504C50.144 32.5893 50.144 32.7173 50.144 32.888H48.608C48.5227 33.2293 48.4373 33.656 48.352 34.168C48.352 34.5947 48.352 35.0213 48.352 35.448H49.632V38.008H50.784V38.648H63.2V40.568H40.8V43.128H66.912V45.688H71.776V48.248H59.744V50.168H56.8V50.808H49.76V52.088H47.072V54.648H45.024V55.928H54.496V56.952C54.496 57.208 54.496 57.464 54.496 57.72C54.496 57.976 54.5387 58.232 54.624 58.488H34.016C34.016 58.8293 34.016 59.1707 34.016 59.512C34.1013 59.768 34.1867 60.0667 34.272 60.408H49.12C49.2053 60.5787 49.248 60.792 49.248 61.048H59.104C59.1893 61.1333 59.232 61.2613 59.232 61.432C59.232 61.6027 59.2747 61.7733 59.36 61.944C59.4453 61.7733 59.488 61.6027 59.488 61.432C59.488 61.2613 59.5307 61.1333 59.616 61.048H60C60 60.8773 60 60.7493 60 60.664C60.0853 60.5787 60.128 60.4933 60.128 60.408H69.728L70.112 58.488H61.408C61.4933 58.232 61.536 57.976 61.536 57.72C61.536 57.464 61.536 57.208 61.536 56.952V55.928H64.608V54.648H68.192V52.088H67.68V50.808H79.968V50.168H82.528ZM75.36 64.248C75.616 63.992 75.7867 63.7787 75.872 63.608H40.928C41.184 63.864 41.3547 64.0773 41.44 64.248H55.776C55.8613 64.3333 55.9467 64.4187 56.032 64.504C56.1173 64.5893 56.2027 64.7173 56.288 64.888H52.064C53.0027 65.8267 54.0693 66.4667 55.264 66.808H54.496C55.52 67.1493 56.7147 67.32 58.08 67.32C59.4453 67.32 60.64 67.1493 61.664 66.808H63.584C64.7787 66.3813 65.8027 65.7413 66.656 64.888H67.552C67.6373 64.7173 67.7227 64.5893 67.808 64.504C67.8933 64.4187 67.9787 64.3333 68.064 64.248H75.36ZM187.896 38.008H185.72V39.928H186.232V41.848H189.048V43.128H187.512V45.688H187.128V46.328H187.64V48.888H185.592V50.168H181.496V51.448H184.568V53.368H186.616V54.648H187.256V57.208H187.64V61.048H187.512V62.968H187.256V65.528H191.224V67.448H185.08V70.648H187.768V71.288H188.792V71.928H185.592V73.848H184.696V76.408H187.768V78.968H186.872V80.888H187.768V82.168H187.512V84.728H187.384V87.288H187.64V87.928H187.512C187.341 88.7813 187.043 89.4213 186.616 89.848H188.792C188.28 90.616 187.427 91 186.232 91H163.832C162.808 91 161.955 90.616 161.272 89.848H159.096C158.669 89.4213 158.371 88.7813 158.2 87.928H158.328V87.288H158.072V84.728H158.2V83.32C157.944 83.832 157.603 84.3013 157.176 84.728H157.432C156.579 85.752 155.683 86.6053 154.744 87.288H154.488C154.403 87.3733 154.275 87.4587 154.104 87.544C153.933 87.6293 153.763 87.7573 153.592 87.928H153.336C152.227 88.696 151.075 89.336 149.88 89.848H152.056C150.008 90.7867 147.789 91.4267 145.4 91.768H143.736C142.712 91.9387 141.645 92.0667 140.536 92.152C139.512 92.2373 138.403 92.28 137.208 92.28C136.355 92.28 135.501 92.2373 134.648 92.152C133.795 92.0667 132.899 91.9387 131.96 91.768H133.624C131.576 91.3413 129.656 90.7013 127.864 89.848H125.688C124.408 89.2507 123.299 88.6107 122.36 87.928H122.744C122.659 87.7573 122.531 87.6293 122.36 87.544C122.189 87.4587 122.019 87.3733 121.848 87.288H122.104C121.677 86.8613 121.208 86.4347 120.696 86.008C120.269 85.5813 119.843 85.1547 119.416 84.728H119.16C118.819 84.3013 118.477 83.8747 118.136 83.448C117.795 83.0213 117.453 82.5947 117.112 82.168H117.368C117.283 81.9973 117.155 81.784 116.984 81.528C116.813 81.272 116.643 81.0587 116.472 80.888H115.576C115.491 80.5467 115.32 80.248 115.064 79.992C114.893 79.6507 114.723 79.3093 114.552 78.968H115.576C115.149 78.0293 114.808 77.176 114.552 76.408H111.48C111.395 75.9813 111.267 75.5547 111.096 75.128C110.925 74.7013 110.797 74.2747 110.712 73.848H111.48L111.096 71.928H114.296C114.211 71.7573 114.168 71.544 114.168 71.288H113.016C113.016 71.032 112.973 70.8187 112.888 70.648H110.328C110.243 70.4773 110.2 70.264 110.2 70.008C110.2 69.752 110.157 69.5387 110.072 69.368H116.856C116.771 69.0267 116.728 68.728 116.728 68.472C116.728 68.1307 116.685 67.7893 116.6 67.448H115.064C114.979 67.1067 114.936 66.808 114.936 66.552C114.936 66.2107 114.936 65.8693 114.936 65.528H112.76V62.968H111.992V61.048H111.608V59.768H111.864V54.648H111.352V53.368H110.2V51.448H111.608V50.168H112.504V48.888H112.632V46.328H112.12V45.688H112.504V43.128H114.936V41.848H112.632V39.928H111.864V38.008H111.48V35.448H114.68V34.168H116.984V32.888H115.704V31.608H112.888V30.968H112.12V29.688H111.992V27.896C111.992 27.7253 111.992 27.5973 111.992 27.512C112.077 27.3413 112.12 27.2133 112.12 27.128H111.992C112.333 25.336 113.443 24.44 115.32 24.44H139.768C141.731 24.44 142.84 25.336 143.096 27.128H143.352V29.688H143.48V30.968H144.248V31.608H147.064V32.888H148.344V34.168H146.04V35.448H142.84V38.008H143.224V39.928H143.992V41.848H146.296V43.128H143.864V45.688H143.48V46.328H143.992V48.888H143.864V50.168H142.968V51.448H141.56V53.368H142.712V54.648H143.224V59.768H142.968V61.048H143.352V62.328C143.352 62.584 143.395 62.7973 143.48 62.968H144.12C144.12 63.9067 144.248 64.76 144.504 65.528H146.68C146.936 66.2107 147.277 66.8507 147.704 67.448H149.368C149.795 67.96 150.307 68.344 150.904 68.6C151.501 68.344 151.971 67.96 152.312 67.448H158.456C158.883 66.8507 159.224 66.2107 159.48 65.528H155.64C155.896 64.76 156.024 63.9067 156.024 62.968H156.28V61.048H156.408V57.208H156.024V54.648H155.384V53.368H153.336V51.448H150.264V50.168H154.36V48.888H156.408V46.328H155.896V45.688H156.28V43.128H157.816V41.848H155V39.928H154.488V38.008H156.664V35.448H159.352V34.168H162.68V32.888H158.456V31.608H156.28V30.968H155.768V29.688H156.28V27.896C156.28 27.5547 156.323 27.2987 156.408 27.128H155.512C155.939 25.336 157.091 24.44 158.968 24.44H183.288C185.08 24.44 186.189 25.336 186.616 27.128H187.384C187.469 27.2987 187.512 27.5547 187.512 27.896V29.688H187V30.968H187.512V31.608H189.688V32.888H193.912V34.168H190.584V35.448H187.896V38.008ZM274.146 38.008H271.97V39.928H272.482V41.848H275.298V43.128H273.762V45.688H273.378V46.328H273.89V48.888H271.842V50.168H267.746V51.448H270.818V53.368H272.866V54.648H273.506V57.208H273.89V61.048H273.762V62.968H273.506V65.528H277.474V67.448H271.33V70.648H274.018V71.288H275.042V71.928H271.842V73.848H270.946V76.408H274.018V78.968H273.122V80.888H274.018V82.168H273.762V84.728H273.634V87.288H273.89V87.928H273.762C273.591 88.7813 273.293 89.4213 272.866 89.848H275.042C274.53 90.616 273.677 91 272.482 91H250.082C249.058 91 248.205 90.616 247.522 89.848H245.346C244.919 89.4213 244.621 88.7813 244.45 87.928H244.578V87.288H244.322V84.728H244.45V83.32C244.194 83.832 243.853 84.3013 243.426 84.728H243.682C242.829 85.752 241.933 86.6053 240.994 87.288H240.738C240.653 87.3733 240.525 87.4587 240.354 87.544C240.183 87.6293 240.013 87.7573 239.842 87.928H239.586C238.477 88.696 237.325 89.336 236.13 89.848H238.306C236.258 90.7867 234.039 91.4267 231.65 91.768H229.986C228.962 91.9387 227.895 92.0667 226.786 92.152C225.762 92.2373 224.653 92.28 223.458 92.28C222.605 92.28 221.751 92.2373 220.898 92.152C220.045 92.0667 219.149 91.9387 218.21 91.768H219.874C217.826 91.3413 215.906 90.7013 214.114 89.848H211.938C210.658 89.2507 209.549 88.6107 208.61 87.928H208.994C208.909 87.7573 208.781 87.6293 208.61 87.544C208.439 87.4587 208.269 87.3733 208.098 87.288H208.354C207.927 86.8613 207.458 86.4347 206.946 86.008C206.519 85.5813 206.093 85.1547 205.666 84.728H205.41C205.069 84.3013 204.727 83.8747 204.386 83.448C204.045 83.0213 203.703 82.5947 203.362 82.168H203.618C203.533 81.9973 203.405 81.784 203.234 81.528C203.063 81.272 202.893 81.0587 202.722 80.888H201.826C201.741 80.5467 201.57 80.248 201.314 79.992C201.143 79.6507 200.973 79.3093 200.802 78.968H201.826C201.399 78.0293 201.058 77.176 200.802 76.408H197.73C197.645 75.9813 197.517 75.5547 197.346 75.128C197.175 74.7013 197.047 74.2747 196.962 73.848H197.73L197.346 71.928H200.546C200.461 71.7573 200.418 71.544 200.418 71.288H199.266C199.266 71.032 199.223 70.8187 199.138 70.648H196.578C196.493 70.4773 196.45 70.264 196.45 70.008C196.45 69.752 196.407 69.5387 196.322 69.368H203.106C203.021 69.0267 202.978 68.728 202.978 68.472C202.978 68.1307 202.935 67.7893 202.85 67.448H201.314C201.229 67.1067 201.186 66.808 201.186 66.552C201.186 66.2107 201.186 65.8693 201.186 65.528H199.01V62.968H198.242V61.048H197.858V59.768H198.114V54.648H197.602V53.368H196.45V51.448H197.858V50.168H198.754V48.888H198.882V46.328H198.37V45.688H198.754V43.128H201.186V41.848H198.882V39.928H198.114V38.008H197.73V35.448H200.93V34.168H203.234V32.888H201.954V31.608H199.138V30.968H198.37V29.688H198.242V27.896C198.242 27.7253 198.242 27.5973 198.242 27.512C198.327 27.3413 198.37 27.2133 198.37 27.128H198.242C198.583 25.336 199.693 24.44 201.57 24.44H226.018C227.981 24.44 229.09 25.336 229.346 27.128H229.602V29.688H229.73V30.968H230.498V31.608H233.314V32.888H234.594V34.168H232.29V35.448H229.09V38.008H229.474V39.928H230.242V41.848H232.546V43.128H230.114V45.688H229.73V46.328H230.242V48.888H230.114V50.168H229.218V51.448H227.81V53.368H228.962V54.648H229.474V59.768H229.218V61.048H229.602V62.328C229.602 62.584 229.645 62.7973 229.73 62.968H230.37C230.37 63.9067 230.498 64.76 230.754 65.528H232.93C233.186 66.2107 233.527 66.8507 233.954 67.448H235.618C236.045 67.96 236.557 68.344 237.154 68.6C237.751 68.344 238.221 67.96 238.562 67.448H244.706C245.133 66.8507 245.474 66.2107 245.73 65.528H241.89C242.146 64.76 242.274 63.9067 242.274 62.968H242.53V61.048H242.658V57.208H242.274V54.648H241.634V53.368H239.586V51.448H236.514V50.168H240.61V48.888H242.658V46.328H242.146V45.688H242.53V43.128H244.066V41.848H241.25V39.928H240.738V38.008H242.914V35.448H245.602V34.168H248.93V32.888H244.706V31.608H242.53V30.968H242.018V29.688H242.53V27.896C242.53 27.5547 242.573 27.2987 242.658 27.128H241.762C242.189 25.336 243.341 24.44 245.218 24.44H269.538C271.33 24.44 272.439 25.336 272.866 27.128H273.634C273.719 27.2987 273.762 27.5547 273.762 27.896V29.688H273.25V30.968H273.762V31.608H275.938V32.888H280.162V34.168H276.834V35.448H274.146V38.008ZM283.98 4.728C284.065 4.472 284.108 4.25866 284.108 4.088C284.193 3.832 284.279 3.61866 284.364 3.448H270.284C270.455 3.192 270.625 2.97866 270.796 2.808C270.967 2.552 271.137 2.33866 271.308 2.168H286.156C286.839 1.656 287.564 1.39999 288.332 1.39999H313.932C314.871 1.39999 315.596 1.656 316.108 2.168H301.26C301.431 2.33866 301.601 2.552 301.772 2.808C302.028 2.97866 302.199 3.192 302.284 3.448H316.236C316.407 3.96 316.492 4.38666 316.492 4.728H323.66C323.745 4.728 323.788 4.77066 323.788 4.856V6.008H306.508V8.56799H313.676V10.488H312.908V13.048H308.3V15.608H318.668V16.248H319.436V18.808H319.948V21.368H319.052V23.928H318.412V27.128H320.588V29.688H318.156V32.248H318.668V32.888H327.756V35.448H332.492V36.728H312.78V38.008H319.308V40.568H313.932V43.128H318.54V44.408H319.436V46.328H336.588V47.608H348.492V50.168H315.98V47.608H304.076V46.328H286.924V44.408H286.028V43.128H281.42V40.568H286.796V38.008H280.268V36.728H299.98V35.448H295.244V32.888H286.156V32.248H285.644V29.688H288.076V27.128H285.9V23.928H286.54V21.368H287.436V18.808H286.924V16.248H286.156V15.608H275.788V13.048H280.396V10.488H281.164V8.56799H273.996V6.008H291.276V4.728H283.98ZM369.1 73.848H334.156V74.488H336.716V76.408H354.892V77.048H349.26V79.608H358.22V81.528H359.5V82.168H358.604V82.808H358.22V85.368H358.476V87.288H357.964V87.928H357.324C357.239 88.0987 357.196 88.312 357.196 88.568H358.604C358.348 89.4213 357.879 90.0613 357.196 90.488H355.788C355.361 90.8293 354.764 91 353.996 91H289.484C288.716 91 288.119 90.8293 287.692 90.488H288.972C288.204 90.0613 287.692 89.4213 287.436 88.568H286.028C286.028 88.3973 285.985 88.2693 285.9 88.184C285.9 88.0987 285.9 88.0133 285.9 87.928H286.54V87.288H287.052V85.368H286.796V82.808H287.18V82.168H288.076V81.528H286.796V79.608H277.836V77.048H283.468V76.408H265.292V74.488H262.732V73.848H297.676V71.928H283.468V70.008H297.292V69.368H267.084V67.448H271.436V66.808H288.076V66.168H282.188V64.248H292.172V61.688H282.06V60.408H290.38V59.768H286.54V57.848H290.252V56.568H285.516V55.288H296.652V53.368H299.852V52.088H282.316V50.168H314.828V52.088H332.364V53.368H329.164V55.288H318.028V56.568H322.764V57.848H319.052V59.768H322.892V60.408H314.572V61.688H324.684V64.248H314.7V64.76H350.156C351.351 64.76 352.289 65.2293 352.972 66.168H358.86L359.244 66.808H342.604L342.86 67.448H338.38C338.465 67.6187 338.508 67.8747 338.508 68.216V69.368H368.716V70.008H354.892V71.928H369.1V73.848ZM432.457 84.088V85.368H443.593V87.544C443.593 87.7147 443.55 87.8427 443.465 87.928H437.449C437.278 89.1227 436.724 89.976 435.785 90.488H434.633C434.206 90.8293 433.609 91 432.841 91H410.441C409.673 91 409.076 90.8293 408.649 90.488H409.673C408.82 89.8907 408.308 89.0373 408.137 87.928H414.281V85.368H409.161C408.734 85.7947 408.265 86.2213 407.753 86.648C407.326 87.0747 406.857 87.5013 406.345 87.928H404.937C403.401 89.0373 401.865 89.8907 400.329 90.488H396.233C395.636 90.744 394.953 90.9573 394.185 91.128C393.502 91.384 392.777 91.5973 392.009 91.768H390.985C390.132 91.9387 389.236 92.0667 388.297 92.152C387.444 92.2373 386.548 92.28 385.609 92.28C384.585 92.28 383.561 92.2373 382.537 92.152C381.598 92.0667 380.66 91.9387 379.721 91.768H380.745C379.892 91.5973 379.038 91.384 378.185 91.128C377.417 90.9573 376.649 90.744 375.881 90.488H379.849C377.972 89.8053 376.265 88.952 374.729 87.928H376.137C375.54 87.5013 374.985 87.0747 374.473 86.648C373.961 86.2213 373.449 85.7947 372.937 85.368H366.537L365.385 84.088C365.3 83.9173 365.172 83.704 365.001 83.448C364.83 83.192 364.66 82.9787 364.489 82.808H368.329C368.158 82.4667 367.945 82.168 367.689 81.912C367.518 81.5707 367.348 81.2293 367.177 80.888H366.025C366.025 80.8027 365.94 80.5893 365.769 80.248H364.617L364.233 79.608H364.361L363.593 77.688H362.953C362.868 77.3467 362.782 77.048 362.697 76.792C362.612 76.4507 362.526 76.1093 362.441 75.768H357.577C357.321 74.8293 357.193 73.976 357.193 73.208H361.417V71.928C361.417 71.5013 361.417 71.0747 361.417 70.648C361.417 70.136 361.46 69.7093 361.545 69.368H365.385C365.47 68.9413 365.556 68.5147 365.641 68.088C365.726 67.576 365.812 67.1493 365.897 66.808H362.313L362.569 66.168H362.697L362.953 65.528H362.825C362.996 65.1867 363.166 64.888 363.337 64.632C363.508 64.2907 363.636 63.9493 363.721 63.608H356.169L356.937 62.328H354.121C354.377 62.072 354.548 61.8587 354.633 61.688H359.241C359.412 61.5173 359.582 61.304 359.753 61.048C359.924 60.792 360.094 60.5787 360.265 60.408H360.521C361.374 59.384 362.27 58.5307 363.209 57.848H352.713C353.31 57.4213 353.95 56.9947 354.633 56.568C355.23 56.056 355.87 55.6293 356.553 55.288H363.593L364.745 54.648H368.329C368.5 54.4773 368.713 54.3493 368.969 54.264C369.225 54.1787 369.438 54.0933 369.609 54.008H371.145C372.681 53.24 374.345 52.6 376.137 52.088H383.945C385.14 51.6613 386.334 51.32 387.529 51.064C388.809 50.7227 390.132 50.424 391.497 50.168H388.297L390.345 49.784L403.913 47.608V46.968H410.441V46.328H398.153V45.688H405.449C405.449 45.2613 405.449 44.92 405.449 44.664C405.449 44.3227 405.406 44.024 405.321 43.768C405.236 43 404.937 42.36 404.425 41.848H402.249C402.164 41.7627 401.95 41.6347 401.609 41.464L400.713 41.848H398.537C398.196 42.104 397.854 42.4027 397.513 42.744C397.172 43 396.788 43.3413 396.361 43.768H396.489C395.55 44.7067 394.356 45.176 392.905 45.176H371.145C369.865 45.176 369.012 44.7067 368.585 43.768H368.457C368.201 43.3413 368.116 42.872 368.201 42.36V41.848H370.249C370.334 41.6773 370.377 41.464 370.377 41.208H362.185C362.185 40.8667 362.27 40.44 362.441 39.928H380.873C380.873 39.8427 380.958 39.6293 381.129 39.288H369.737C369.993 38.4347 370.377 37.5813 370.889 36.728H373.065C373.321 36.3013 373.62 35.8747 373.961 35.448C374.302 35.0213 374.644 34.5947 374.985 34.168H365.385L366.537 32.888H385.097C385.438 32.5467 385.78 32.248 386.121 31.992C386.548 31.6507 386.932 31.3093 387.273 30.968H375.497L376.265 30.328H372.681C373.108 29.9867 373.577 29.688 374.089 29.432C374.601 29.0907 375.113 28.7493 375.625 28.408H381.641C383.433 27.384 385.31 26.5307 387.273 25.848H388.169C390.473 24.9947 393.033 24.3547 395.849 23.928C398.75 23.416 401.908 23.16 405.321 23.16C412.318 23.16 418.249 24.056 423.113 25.848H422.089C423.028 26.1893 423.924 26.5733 424.777 27C425.716 27.4267 426.612 27.896 427.465 28.408H421.449L424.137 30.328H427.721L428.489 30.968H440.265L442.185 32.888H423.625C423.796 33.0587 423.966 33.272 424.137 33.528C424.308 33.784 424.478 33.9973 424.649 34.168H434.121C434.462 34.5093 434.761 34.936 435.017 35.448C435.358 35.8747 435.614 36.3013 435.785 36.728H433.737L434.889 39.288H446.281C446.452 39.6293 446.537 39.8427 446.537 39.928H428.105C428.276 40.0987 428.361 40.312 428.361 40.568C428.446 40.824 428.532 41.0373 428.617 41.208H432.841C432.841 41.2933 432.841 41.3787 432.841 41.464C432.926 41.5493 432.969 41.6773 432.969 41.848H435.145L435.913 45.688H428.489C428.489 45.7733 428.489 45.8587 428.489 45.944C428.574 46.0293 428.617 46.1573 428.617 46.328H440.905V46.968H434.505V47.608C434.59 48.0347 434.633 48.4613 434.633 48.888C434.633 49.3147 434.633 49.7413 434.633 50.168H437.961V52.088H430.025V54.008H428.617V54.648H425.161V55.288H418.121V57.848H428.617V60.408H428.361V61.688H423.753V62.328H426.569V63.608H435.017V65.528H433.481V66.808H434.505V69.368H433.737V73.208H429.513V75.768H434.377V77.688H435.017V80.248H436.169V80.888H437.193V82.808H433.225V84.088H432.457ZM395.337 41.08C394.74 41.08 394.313 41.1227 394.057 41.208H396.745C396.489 41.1227 396.02 41.08 395.337 41.08ZM396.233 63.352L395.081 63.608H396.233V63.352ZM391.881 66.808H395.465C394.526 67.4907 394.057 68.344 394.057 69.368H390.217V69.752C390.217 70.6053 390.516 71.3307 391.113 71.928C391.54 72.5253 392.393 72.952 393.673 73.208H396.745C398.025 72.952 399.134 72.5253 400.073 71.928C400.841 71.2453 401.566 70.392 402.249 69.368H402.889C403.06 68.9413 403.23 68.5573 403.401 68.216C403.572 67.7893 403.7 67.32 403.785 66.808H402.761C402.761 66.6373 402.761 66.5093 402.761 66.424C402.846 66.3387 402.889 66.2533 402.889 66.168H403.017V65.528H404.553C404.638 65.1867 404.681 64.888 404.681 64.632C404.681 64.2907 404.681 63.9493 404.681 63.608H402.505L396.233 65.016C395.892 65.1013 395.55 65.1867 395.209 65.272C394.953 65.3573 394.697 65.4427 394.441 65.528C394.185 65.6133 393.929 65.6987 393.673 65.784C393.417 65.8693 393.204 65.9973 393.033 66.168H392.905C392.734 66.2533 392.564 66.3387 392.393 66.424C392.222 66.5093 392.052 66.6373 391.881 66.808ZM392.521 73.208H389.321C389.662 73.2933 390.174 73.336 390.857 73.336C391.113 73.336 391.369 73.336 391.625 73.336C391.966 73.336 392.265 73.2933 392.521 73.208ZM527.058 64.888H515.026C515.026 65.3147 514.983 65.7413 514.898 66.168C514.898 66.5947 514.855 67.0213 514.77 67.448H519.122C519.122 67.704 519.079 67.9173 518.994 68.088H519.762C519.677 68.4293 519.591 68.7707 519.506 69.112C519.506 69.368 519.506 69.6667 519.506 70.008H517.586C517.501 70.3493 517.415 70.6907 517.33 71.032C517.33 71.288 517.245 71.5867 517.074 71.928H519.25C519.25 72.184 519.207 72.3973 519.122 72.568H518.354C518.269 72.9947 518.183 73.4213 518.098 73.848C518.013 74.2747 517.885 74.7013 517.714 75.128H517.586C517.33 75.896 516.989 76.7493 516.562 77.688H516.69C516.519 78.1147 516.306 78.5413 516.05 78.968H515.922L515.538 79.608H511.442L510.29 81.528H506.834L506.45 82.168H501.842C501.501 82.5947 501.159 83.0213 500.818 83.448C500.562 83.8747 500.221 84.3013 499.794 84.728H518.226C518.055 84.984 517.842 85.24 517.586 85.496C517.33 85.6667 517.117 85.8373 516.946 86.008H502.226L501.458 86.648H510.29C509.693 87.16 509.053 87.6293 508.37 88.056C507.773 88.3973 507.133 88.7813 506.45 89.208H501.202C500.093 89.8053 498.898 90.3173 497.618 90.744C496.338 91.1707 494.973 91.512 493.522 91.768H498.77C497.831 91.9387 496.85 92.0667 495.826 92.152C494.802 92.2373 493.735 92.28 492.626 92.28C491.602 92.28 490.578 92.2373 489.554 92.152C488.615 92.0667 487.677 91.9387 486.738 91.768H481.49C478.93 91.256 476.498 90.4027 474.194 89.208H469.202C468.434 90.4027 467.41 91 466.13 91H444.37C443.005 91 442.023 90.4027 441.426 89.208H446.674C446.418 88.696 446.29 88.1413 446.29 87.544V86.648H443.09V86.008H439.762V84.728H432.722V82.168H437.202V81.528H440.658V79.608H444.754V78.968H445.01V77.688H444.882V75.128H445.01V72.568H445.778V71.928H443.602V70.008H445.522V67.448H446.418V64.888H442.45V64.248H445.138V61.688H458.578V59.768H454.994V59.128H444.626V57.208H444.37V56.568H444.754V54.008H446.546V52.088H445.65V50.168H445.394V48.888H446.29V46.328H443.09V43.768H444.114V41.848H441.426V40.568H444.498V38.648H445.01V36.088H442.066V34.168H445.65V29.688H439.762V27.128H441.426V26.488H445.01V23.928H445.522V23.288H445.778V22.648H442.706V22.008H446.802V20.088H445.778V19.448H444.882V17.528H448.082V16.248H451.666V14.328H448.978V11.768H443.602V11.128H445.138V9.848H443.73V9.20799H439.634V6.64799H443.09V6.008H444.37V4.088H443.346V3.448H445.01C445.01 2.424 445.437 1.57066 446.29 0.887993H445.266C445.949 0.375994 446.674 0.119995 447.442 0.119995H471.122C472.061 0.119995 472.786 0.375994 473.298 0.887993H474.322C475.175 1.57066 475.602 2.424 475.602 3.448H473.938V4.088H474.962V6.008H473.682V6.64799H470.226V9.20799H474.322V9.848H475.73V11.128H474.194V11.768H479.57V14.328H482.258V16.248H478.674V17.528H475.474V19.448H476.37V20.088H477.394V22.008H473.298V22.648H476.37V23.288H476.114V23.928H475.602V26.488H472.018V27.128H470.354V29.176C470.781 28.7493 471.207 28.408 471.634 28.152C472.061 27.8107 472.53 27.4693 473.042 27.128H477.906C478.077 26.9573 478.247 26.8293 478.418 26.744C478.674 26.6587 478.845 26.5733 478.93 26.488H480.338C482.386 25.2933 484.562 24.44 486.866 23.928H485.714C486.397 23.7573 487.037 23.6293 487.634 23.544C488.317 23.4587 488.999 23.3733 489.682 23.288H489.042C489.469 23.2027 489.895 23.16 490.322 23.16C490.834 23.16 491.346 23.16 491.858 23.16C492.37 23.16 492.882 23.16 493.394 23.16C493.906 23.16 494.375 23.2027 494.802 23.288H495.442C496.125 23.3733 496.807 23.4587 497.49 23.544C498.258 23.6293 498.941 23.7573 499.538 23.928H500.69C503.079 24.44 505.341 25.2933 507.474 26.488H506.066C506.237 26.5733 506.407 26.6587 506.578 26.744C506.834 26.8293 507.005 26.9573 507.09 27.128H502.226C502.823 27.4693 503.378 27.8533 503.89 28.28C504.487 28.7067 505.042 29.176 505.554 29.688H511.442C511.869 30.0293 512.253 30.456 512.594 30.968C513.021 31.3947 513.405 31.8213 513.746 32.248C514.002 32.5893 514.258 32.9307 514.514 33.272C514.77 33.528 514.983 33.8267 515.154 34.168H511.57C512.082 34.7653 512.466 35.4053 512.722 36.088H515.666C515.837 36.4293 516.05 36.856 516.306 37.368C516.562 37.7947 516.775 38.2213 516.946 38.648H516.306L517.074 40.568H514.13L514.514 41.848H517.202C517.287 42.1893 517.373 42.5307 517.458 42.872C517.543 43.128 517.629 43.4267 517.714 43.768H516.69C516.861 44.1093 516.946 44.536 516.946 45.048C517.031 45.4747 517.117 45.9013 517.202 46.328H519.89L520.274 48.888H517.202C517.202 49.0587 517.202 49.272 517.202 49.528C517.202 49.784 517.245 49.9973 517.33 50.168H519.89C519.89 50.5093 519.89 50.8507 519.89 51.192C519.975 51.448 520.018 51.7467 520.018 52.088H519.506V54.008H519.762C519.847 54.4347 519.89 54.8613 519.89 55.288C519.89 55.7147 519.89 56.1413 519.89 56.568H519.122V57.208H521.682V59.128H521.298V59.768H526.802V61.688H517.074V62.712C517.074 62.968 517.074 63.224 517.074 63.48C517.074 63.736 517.031 63.992 516.946 64.248H527.186C527.101 64.4187 527.058 64.632 527.058 64.888ZM475.09 59.128H485.458V59.768H489.042C489.042 60.1093 489.042 60.4507 489.042 60.792C489.127 61.048 489.17 61.3467 489.17 61.688H495.442C495.442 61.3467 495.442 61.048 495.442 60.792C495.527 60.4507 495.57 60.1093 495.57 59.768H489.938V59.128H490.45V57.208H487.762V56.568H488.53C488.53 56.1413 488.53 55.7147 488.53 55.288C488.53 54.776 488.487 54.3493 488.402 54.008H488.146V53.496C488.061 53.24 488.018 53.0267 488.018 52.856C488.018 52.6 487.975 52.344 487.89 52.088H488.53C488.445 51.7467 488.359 51.448 488.274 51.192C488.274 50.8507 488.189 50.5093 488.018 50.168H485.458C485.287 49.656 485.117 49.2293 484.946 48.888H488.018C487.335 47.5227 486.311 46.6693 484.946 46.328H482.258C481.917 46.2427 481.575 46.2 481.234 46.2C480.893 46.1147 480.509 46.072 480.082 46.072C479.741 46.072 479.357 46.1147 478.93 46.2C478.589 46.2 478.247 46.2427 477.906 46.328H480.978C479.613 46.6693 478.503 47.5227 477.65 48.888H476.882C476.711 49.2293 476.541 49.656 476.37 50.168H476.626C476.541 50.5093 476.455 50.8507 476.37 51.192C476.37 51.448 476.327 51.7467 476.242 52.088H477.138V52.472C477.138 52.728 477.095 52.984 477.01 53.24C477.01 53.496 477.01 53.752 477.01 54.008H475.218C475.133 54.4347 475.09 54.8613 475.09 55.288C475.09 55.7147 475.09 56.1413 475.09 56.568H474.706V57.208H474.962C474.962 57.5493 474.962 57.8907 474.962 58.232C474.962 58.488 475.005 58.7867 475.09 59.128ZM486.482 67.448H482.13C482.642 66.8507 483.026 65.9973 483.282 64.888H495.314C495.399 64.7173 495.442 64.504 495.442 64.248H485.33L485.714 61.944V61.688H475.73V61.944C475.815 62.2853 475.858 62.6693 475.858 63.096C475.858 63.4373 475.901 63.8213 475.986 64.248H473.298L473.554 64.888H477.522C477.693 65.4 477.821 65.8693 477.906 66.296C478.077 66.7227 478.333 67.1067 478.674 67.448H477.65C477.735 67.5333 477.821 67.6187 477.906 67.704C478.077 67.7893 478.205 67.9173 478.29 68.088C479.314 68.9413 480.722 69.368 482.514 69.368C484.221 69.368 485.586 68.9413 486.61 68.088H485.842C486.013 67.9173 486.141 67.7893 486.226 67.704C486.311 67.6187 486.397 67.5333 486.482 67.448ZM481.106 86.008C480.85 85.8373 480.594 85.624 480.338 85.368C480.167 85.112 479.997 84.8987 479.826 84.728H468.434V86.008H481.106ZM479.442 89.208C478.077 88.3547 476.882 87.5013 475.858 86.648H474.962V87.544C474.962 88.1413 474.834 88.696 474.578 89.208H479.442Z" fill="white"/>
</svg>
